<svg width="600" height="84" viewBox="0 0 600 84" fill="none" xmlns="http://www.w3.org/2000/svg">
<path d="M1.10116 61.1697V60.8027H19.326V61.9039C19.326 67.3617 22.7252 68.8299 33.0505 68.8299C42.7694 68.8299 45.0674 67.234 45.0674 63.6114C45.0674 59.9888 43.2482 59.2388 36.0827 58.2653L18.959 56.1906C6.81438 54.8501 0 49.3922 0 39.1946C0 28.5022 9.11241 20.0441 30.0024 20.0441C49.9348 20.0441 61.2336 27.5766 61.2336 42.3863V42.7534H42.9609V42.0352C42.9609 37.0561 40.5352 34.5027 29.3481 34.5027C20.2357 34.5027 17.9376 36.0986 17.9376 39.9606C17.9376 43.1523 19.6293 44.461 27.6565 45.4345L40.6469 47.0303C56.9247 48.8496 62.9891 54.3075 62.9891 64.3934C62.9891 75.8199 51.6903 83.3524 32.859 83.3524C12.352 83.2885 1.10116 75.2613 1.10116 61.1697Z" fill="white"/>
<path d="M70.4099 14.5703V0H88.6347V14.5065L70.4099 14.5703ZM70.4099 83.113V19.9963H88.6347V83.113H70.4099Z" fill="white"/>
<path d="M97.7631 83.2886V0H116.004V83.2247L97.7631 83.2886Z" fill="white"/>
<path d="M136.319 83.113L123.76 55.5044L139.176 44.9238L147.538 64.7126H148.799L176.296 0H197.585L159.619 82.9853L136.319 83.113Z" fill="#9165FF"/>
<path d="M185.568 51.7063C185.568 32.2686 199.293 19.9963 219.337 19.9963C239.381 19.9963 252.499 30.4493 252.499 49.52C252.464 51.4698 252.304 53.4154 252.02 55.3449H202.452C202.947 64.6967 207.32 68.7023 219.097 68.7023C229.901 68.7023 233.668 65.9096 233.668 60.723V59.5101H251.892V60.8347C251.892 74.0804 239.014 83.3205 219.704 83.3205C199.42 83.2886 185.568 73.3144 185.568 51.7063ZM202.692 45.7537H235.008C234.529 37.7744 229.662 34.2156 218.97 34.2156C208.277 34.2156 203.554 37.8541 202.692 45.7537V45.7537Z" fill="white"/>
<path d="M259.92 83.2886V19.9963H277.187V37.7105H278.304C280.044 27.6725 286.603 19.9963 299.05 19.9963C312.919 19.9963 318.616 29.5716 318.616 41.6683V51.9457H300.04V45.5622C300.04 38.7478 297.311 35.7795 289.762 35.7795C281.464 35.7795 278.496 39.6096 278.496 47.4134V83.3365L259.92 83.2886Z" fill="white"/>
<path d="M326.036 83.2567V0H344.66V39.9766H345.65C347.645 29.4279 354.97 19.7409 370.865 19.7409C387.621 19.7409 395.824 30.6727 395.824 45.0674V83.1928H377.2V50.7168C377.2 40.2958 372.716 36.5614 361.05 36.5614C348.506 36.5614 344.66 41.6523 344.66 52.0893V83.2567H326.036Z" fill="white"/>
<path d="M403.261 51.6904C403.261 32.2526 417.225 19.9963 437.987 19.9963C458.749 19.9963 472.713 32.2526 472.713 51.6904C472.713 70.8408 458.749 83.2567 437.987 83.2567C417.225 83.2567 403.261 70.8727 403.261 51.6904ZM454.632 51.6904C454.632 40.998 450.259 36.0189 437.987 36.0189C425.715 36.0189 421.358 40.998 421.358 51.6904C421.358 62.3827 425.603 67.1065 437.987 67.1065C450.371 67.1065 454.6 62.3667 454.6 51.6904H454.632Z" fill="white"/>
<path d="M481.187 61.1538V60.7868H499.412V61.8879C499.412 67.3458 502.811 68.814 513.137 68.814C522.839 68.814 525.153 67.2181 525.153 63.5795C525.153 60.1803 523.334 59.2068 516.169 58.2493L499.013 56.1747C486.869 54.8501 480.07 49.3763 480.07 39.1787C480.07 28.4863 489.182 20.0282 510.056 20.0282C529.973 20.0282 541.272 27.5448 541.272 42.3704V42.7374H523.095V42.0034C523.095 37.0242 520.653 34.4708 509.482 34.4708C500.386 34.4708 498.071 36.0667 498.071 39.9287C498.071 43.1205 499.779 44.4291 507.79 45.4026L520.781 46.9984C537.059 48.8177 543.123 54.2756 543.123 64.3615C543.123 75.772 531.84 83.3045 513.009 83.3045C492.486 83.2567 481.187 75.2454 481.187 61.1538Z" fill="white"/>
<path d="M584.313 83.2567C569.519 83.2567 560.534 76.2986 560.534 60.3559V35.572H550.544V19.8846H560.534V0H579.509V19.8207H600V35.5082H579.509V58.1536C579.509 64.5371 581.919 66.1329 588.621 66.1329H600V83.2088L584.313 83.2567Z" fill="white"/>
</svg>
